<svg xmlns="http://www.w3.org/2000/svg" viewBox="0 0 673.57 472.86"><defs><style>.cls-1{fill:#fff;}</style></defs><g id="Layer_2" data-name="Layer 2"><g id="Layer_1-2" data-name="Layer 1"><path class="cls-1" d="M400.61,0V129.53a64.77,64.77,0,0,1-64.76,64.77H271.1V97.15a64.78,64.78,0,0,0-62.73,48.58v0a64.62,64.62,0,0,0-2,16.15v97.15h129.5A129.53,129.53,0,0,0,465.37,129.53V0Z"/><path class="cls-1" d="M368.24,113.34v-81c-1.13,0-2.28,0-3.41.09-.37,0-.73.07-1.11.09-.74,0-1.5.1-2.25.18l-1.19.15c-.73.09-1.43.17-2.14.28l-1.14.2c-.71.13-1.43.26-2.13.41-.32.06-.65.15-1,.22-.76.17-1.53.36-2.29.55-.24.06-.49.15-.73.22-.86.23-1.67.46-2.48.72l-.49.17c-.91.3-1.8.62-2.71,1a1.47,1.47,0,0,0-.14.06c-1.91.73-3.78,1.55-5.59,2.45l-.33.17c-.75.38-1.51.77-2.23,1.17L336,41c-.55.33-1.1.64-1.65,1s-.91.57-1.35.87-.78.48-1.16.74c-.57.4-1.14.8-1.71,1.22l-.73.53c-.68.5-1.32,1-2,1.55-.14.12-.29.22-.41.34-.73.59-1.43,1.2-2.12,1.82l-.22.19c-.76.69-1.51,1.39-2.23,2.13a64.6,64.6,0,0,0-19,45.8v64.76h16.19A48.58,48.58,0,0,0,368.24,113.34Z"/><path class="cls-1" d="M359.19,296.59a6.26,6.26,0,0,0-5.71,4.44,1.77,1.77,0,0,0,0,.2l-.14.77a.78.78,0,0,0,0,.22L339.37,374h-.51l-13.27-77.4H305.93l-14,77.4h-.49l-14.14-71.8a.18.18,0,0,0,0-.12l-.16-.78v0c-.09-.24-.15-.47-.22-.72a.56.56,0,0,1-.07-.16,6.32,6.32,0,0,0-5.21-3.8H249.68l29.48,124.58h22.11l13.76-74h.5l13.75,74h22.13l29.47-124.58Z"/><path class="cls-1" d="M503.11,317.23a33.54,33.54,0,0,0-3.18-10.33q-6.4-11.77-21.88-11.8-9.32,0-14.24,3.7a60.9,60.9,0,0,0-9.59,9.1v-5.39a1.72,1.72,0,0,0,0-.32,3.13,3.13,0,0,0-.14-.81.45.45,0,0,0,0-.11,6,6,0,0,1-.23-.72c0-.06-.06-.1-.07-.16a6.28,6.28,0,0,0-5.2-3.8H429.15V439A25.06,25.06,0,0,0,454.22,464V409.87h.49a30.28,30.28,0,0,0,10,9.46,26.08,26.08,0,0,0,13.15,3.32c6.06,0,10.78-1.06,14.12-3.19a26.83,26.83,0,0,0,8.24-8.12,24.64,24.64,0,0,0,3.2-10.32,190.31,190.31,0,0,0,.73-19.91V333.7A108.28,108.28,0,0,0,503.11,317.23Zm-24.06,65.62a20.3,20.3,0,0,1-2.59,10.32c-1.73,2.94-4.95,4.4-9.71,4.4a11.65,11.65,0,0,1-8.95-3.78,13.59,13.59,0,0,1-3.58-9.72V335.66c0-4.58,1.14-8.31,3.45-11.19a11.06,11.06,0,0,1,9.08-4.29q6.4,0,9.35,4.66c1.95,3.13,2.95,7.21,2.95,12.29Z"/><path class="cls-1" d="M588.29,368.34v-34.4a44.17,44.17,0,0,0-2.58-15.23,37.15,37.15,0,0,0-7.35-12.42,33.48,33.48,0,0,0-11.8-8.23,40,40,0,0,0-15.6-3q-11.58,0-19.92,4.94a33.06,33.06,0,0,0-16.45,24.3,92.36,92.36,0,0,0-1,14v41a91.76,91.76,0,0,0,1,14A33,33,0,0,0,531,417.73q8.36,4.9,19.92,4.92a39,39,0,0,0,15.47-2.95,35.3,35.3,0,0,0,11.8-8.11,32.51,32.51,0,0,0,7.48-11.8,41.33,41.33,0,0,0,2.58-14.73H567.87a6.23,6.23,0,0,0-5.59,4.17c0,.06-.06.15-.07.21a25.28,25.28,0,0,1-1.8,4c-1.55,2.79-4.7,4.16-9.45,4.16-3.78,0-6.77-1.05-9-3.19s-3.33-5.15-3.33-9.08v-17Zm-49.63-33.9c0-4.75,1.12-8.33,3.33-10.7a13.08,13.08,0,0,1,17.94,0c2.23,2.37,3.3,5.95,3.3,10.7v14.23H538.66Z"/><path class="cls-1" d="M668.28,364.67Q663,355.31,649,349.92L634.26,344q-7.12-2.7-8.85-6a14.55,14.55,0,0,1-1.72-6.74,13.21,13.21,0,0,1,3.21-8.74q3.18-3.79,9.08-3.8a13.3,13.3,0,0,1,8.72,3.18c2.54,2.14,3.88,5.33,4,9.6h16.77a6.27,6.27,0,0,0,6.27-6.27c0-.22,0-.43,0-.64a3.43,3.43,0,0,0-.14-.83,36.2,36.2,0,0,0-2-6.65,33.91,33.91,0,0,0-18.55-19.16A35.37,35.37,0,0,0,637,295.1,37.15,37.15,0,0,0,611,305.32a34.82,34.82,0,0,0-8,11.54,36.37,36.37,0,0,0-2.92,14.63q0,12.52,6.74,21.24a40.9,40.9,0,0,0,18.56,13.14l12,4.44q7.13,2.71,9.82,6.38a14.61,14.61,0,0,1,2.71,8.86q0,6.39-4.29,9.95a14.86,14.86,0,0,1-9.71,3.56c-4.76,0-8.08-1.49-10-4.44a25.41,25.41,0,0,1-2.39-4.78.43.43,0,0,0,0-.11,5.44,5.44,0,0,1-.23-.72,1.11,1.11,0,0,1-.07-.16,6.22,6.22,0,0,0-5.22-3.79H598.86a41.63,41.63,0,0,0,3.46,16.33,35.89,35.89,0,0,0,8.24,11.67,34.58,34.58,0,0,0,11.65,7.14,40.44,40.44,0,0,0,14,2.45,37.84,37.84,0,0,0,15-2.95A35,35,0,0,0,663,411.59a38.25,38.25,0,0,0,7.74-11.91,37.22,37.22,0,0,0,2.84-14.62A40.71,40.71,0,0,0,668.28,364.67Z"/><path class="cls-1" d="M395.88,323.64a33.19,33.19,0,0,1-4.06.24h-.14v97.29h25.07V312.93A34,34,0,0,1,395.88,323.64Z"/><path class="cls-1" d="M74.71,368.34v-34.4a44.18,44.18,0,0,0-2.6-15.23,36.86,36.86,0,0,0-7.37-12.42A33.18,33.18,0,0,0,53,298.06a40.08,40.08,0,0,0-15.62-3q-11.57,0-19.9,4.94A33.12,33.12,0,0,0,1,324.34a92.31,92.31,0,0,0-1,14v41a91.7,91.7,0,0,0,1,14,33.11,33.11,0,0,0,16.46,24.32q8.36,4.9,19.9,4.92a39.07,39.07,0,0,0,15.49-2.95,35.21,35.21,0,0,0,11.78-8.11,32.4,32.4,0,0,0,7.49-11.8,41.34,41.34,0,0,0,2.6-14.73H54.29a6.2,6.2,0,0,0-5.6,4.17l-.08.21a24.33,24.33,0,0,1-1.79,4c-1.56,2.79-4.71,4.16-9.47,4.16-3.76,0-6.75-1.05-9-3.19s-3.33-5.15-3.33-9.08v-17Zm-49.64-33.9c0-4.75,1.11-8.33,3.33-10.7a11.59,11.59,0,0,1,9-3.56,11.61,11.61,0,0,1,9,3.56c2.2,2.37,3.32,5.95,3.32,10.7v14.23H25.07Z"/><path class="cls-1" d="M139.23,385.06a6.24,6.24,0,0,0-5.61,4.17,1.66,1.66,0,0,1-.06.21,27.25,27.25,0,0,1-1.8,4c-1.56,2.79-4.71,4.16-9.45,4.16-3.79,0-6.77-1.05-9-3.19S110,389.23,110,385.3V334.44c0-4.75,1.12-8.33,3.32-10.7a13.07,13.07,0,0,1,17.93,0c2.23,2.37,3.32,6.11,3.32,11.2H153a6.27,6.27,0,0,0,6.28-6.25,4.35,4.35,0,0,0,0-.5,7.38,7.38,0,0,0-.13-.91,44.74,44.74,0,0,0-2-8.34,37,37,0,0,0-7.37-12.65,33.35,33.35,0,0,0-11.79-8.23,40,40,0,0,0-15.6-3q-11.57,0-19.91,4.94a33,33,0,0,0-16.46,24.3,92.36,92.36,0,0,0-1,14v41a91.76,91.76,0,0,0,1,14,33,33,0,0,0,16.46,24.32q8.35,4.9,19.91,4.92a39.08,39.08,0,0,0,15.47-2.95,35.3,35.3,0,0,0,11.8-8.11,32.8,32.8,0,0,0,7.49-11.8,41.78,41.78,0,0,0,2.58-14.73Z"/><path class="cls-1" d="M168.79,338.36a93.5,93.5,0,0,1,1-14,34.24,34.24,0,0,1,3.7-11.3,33.31,33.31,0,0,1,12.77-13q8.36-4.92,19.91-4.93T226,300a33.44,33.44,0,0,1,12.77,13,34.46,34.46,0,0,1,3.69,11.3,93.38,93.38,0,0,1,1,14v41a93.09,93.09,0,0,1-1,14,34.46,34.46,0,0,1-3.69,11.3,33.53,33.53,0,0,1-12.77,13q-8.35,4.92-19.9,4.92t-19.91-4.92a33.4,33.4,0,0,1-12.77-13,34.24,34.24,0,0,1-3.7-11.3,93.21,93.21,0,0,1-1-14Zm25.06,45q0,7.13,3.31,10.69a13.08,13.08,0,0,0,17.94,0c2.21-2.38,3.33-5.94,3.33-10.69v-48.9c0-4.74-1.12-8.31-3.33-10.69a13.08,13.08,0,0,0-17.94,0q-3.3,3.57-3.31,10.69Z"/><path class="cls-1" d="M416.74,278a22.31,22.31,0,0,0-3,.17,25.05,25.05,0,0,0-22,22.31c-.08.84-.13,1.69-.13,2.56v12.22h.14a26.25,26.25,0,0,0,2.95-.18,25.08,25.08,0,0,0,22-22.32,21.73,21.73,0,0,0,.13-2.56V278Z"/><path class="cls-1" d="M20.71,463.51H16.6l-2.55-13.72H14l-2.55,13.72H7.3L1.83,440.39H6.75l2.83,14.36h.09l2.6-14.36h3.65l2.46,14.36h.09l2.78-14.36h4.94Z"/><path class="cls-1" d="M44,453.7v3.15a2.09,2.09,0,0,0,2.28,2.28,2.18,2.18,0,0,0,2.27-2.32h4.66a7.11,7.11,0,0,1-1.87,4.93,6.8,6.8,0,0,1-5.06,2.05,6.63,6.63,0,0,1-6.07-3.34,10.27,10.27,0,0,1-.87-4.69v-7.62a10.21,10.21,0,0,1,.87-4.69,6.62,6.62,0,0,1,6.07-3.34c4.29,0,6.93,3.15,6.93,7.21v6.38Zm0-3.64h4.55v-2.65c0-1.73-.86-2.64-2.27-2.64s-2.28.91-2.28,2.64Z"/><path class="cls-1" d="M74.84,458.86H79.5v4.65H74.84Z"/><path class="cls-1" d="M118.58,463.51h-4.1l-2.56-13.72h-.09l-2.55,13.72h-4.11L99.7,440.39h4.93l2.83,14.36h.09l2.59-14.36h3.66l2.45,14.36h.09l2.79-14.36h4.92Z"/><path class="cls-1" d="M139,448.14a10.09,10.09,0,0,1,.86-4.69,7.18,7.18,0,0,1,12.13,0,10.08,10.08,0,0,1,.87,4.69v7.62a10.14,10.14,0,0,1-.87,4.69,7.18,7.18,0,0,1-12.13,0,10.14,10.14,0,0,1-.86-4.69Zm4.64,8.35c0,1.73.87,2.64,2.29,2.64s2.28-.91,2.28-2.64v-9.08c0-1.73-.87-2.64-2.28-2.64s-2.29.91-2.29,2.64Z"/><path class="cls-1" d="M170,440.39h4.65v2.46c1.92-1.69,3.47-2.74,6.17-2.74V445a3.67,3.67,0,0,0-1.43-.27,4.64,4.64,0,0,0-4.74,5v13.72H170Z"/><path class="cls-1" d="M196.07,432.72h4.65V457c0,1.73.5,2.24,2.29,2.41v4.39c-4.29,0-6.94-1.1-6.94-6.48Z"/><path class="cls-1" d="M227.77,461.42c-1.19,1.31-2.11,2.37-4.42,2.37a4.25,4.25,0,0,1-4.07-2.19c-.55-1-.77-2.42-.77-5v-8.8c0-3.33.12-4.65.73-5.62a4.39,4.39,0,0,1,4.15-2.09,5,5,0,0,1,4.28,2.37h.1v-9.76h4.65v30.79h-4.65ZM223.15,456c0,1.87.69,3.14,2.3,3.14,1.4,0,2.32-1.18,2.32-2.88v-9a2.35,2.35,0,0,0-2.32-2.51c-1.79,0-2.3,1.27-2.3,2.73Z"/><path class="cls-1" d="M254.48,458.86h4.67v4.65h-4.67Z"/><path class="cls-1" d="M298.23,463.51h-4.11l-2.55-13.72h-.1l-2.55,13.72h-4.09l-5.49-23.12h4.93l2.82,14.36h.09l2.61-14.36h3.65l2.46,14.36h.1l2.78-14.36h4.91Z"/><path class="cls-1" d="M319.35,432.72H324v4.66h-4.64Zm0,7.67H324v23.12h-4.64Z"/><path class="cls-1" d="M341.52,440.39h4.65v2.09c1.18-1.32,2.09-2.37,4.43-2.37a4.22,4.22,0,0,1,4,2.19c.54,1,.78,2.42.78,5v8.8c0,3.32-.14,4.65-.74,5.6a4.34,4.34,0,0,1-4.16,2.11,5,5,0,0,1-4.28-2.37h-.08v11.44h-4.65Zm9.25,7.52c0-1.87-.68-3.14-2.28-3.14-1.43,0-2.32,1.18-2.32,2.87v9a2.35,2.35,0,0,0,2.32,2.51c1.78,0,2.28-1.27,2.28-2.74Z"/><path class="cls-1" d="M377.19,453.7v3.15a2.07,2.07,0,0,0,2.26,2.28,2.18,2.18,0,0,0,2.28-2.32h4.65a7.19,7.19,0,0,1-1.85,4.93,6.87,6.87,0,0,1-5.08,2.05,6.6,6.6,0,0,1-6.06-3.34,10.26,10.26,0,0,1-.88-4.69v-7.62a10.2,10.2,0,0,1,.88-4.69,6.58,6.58,0,0,1,6.06-3.34c4.28,0,6.93,3.15,6.93,7.21v6.38Zm0-3.64h4.54v-2.65c0-1.73-.86-2.64-2.28-2.64s-2.26.91-2.26,2.64Z"/><path class="cls-1" d="M411.92,446.86a2.29,2.29,0,0,0-2.35-2.37,2.23,2.23,0,0,0-2.29,2.33c0,.86.22,1.68,2,2.37l2.72,1.1a6.45,6.45,0,0,1,4.57,6.52,6.87,6.87,0,0,1-6.94,7c-3.64,0-6.74-2.42-6.93-7h4.38c.19,1.27.77,2.59,2.52,2.59a2.5,2.5,0,0,0,2.58-2.5c0-1.28-.55-2.15-2.33-2.83l-2.22-.83c-2.93-1.09-4.71-3.28-4.71-6.38a6.7,6.7,0,0,1,6.85-6.75,6.56,6.56,0,0,1,6.58,6.75Z"/></g></g></svg>