<svg xmlns="http://www.w3.org/2000/svg" viewBox="0 0 283.46 82.02"><defs><style>.cls-1{fill:#fff;}</style></defs><g id="Layer_2" data-name="Layer 2"><g id="Layer_1-2" data-name="Layer 1"><path class="cls-1" d="M151.16,7.84a2.62,2.62,0,0,0-2.4,1.86.64.64,0,0,1,0,.09l-.06.32s0,.06,0,.1l-5.85,30.2h-.21L137,7.84h-8.27l-5.89,32.57h-.21l-6-30.22a.11.11,0,0,0,0,0l-.07-.33h0l-.09-.31,0-.06a2.64,2.64,0,0,0-2.19-1.6h-9.23l12.4,52.43h9.31l5.79-31.13h.21l5.79,31.13h9.31l12.4-52.43Z"/><path class="cls-1" d="M211.73,16.52a14.14,14.14,0,0,0-1.34-4.34c-1.8-3.31-4.86-5-9.21-5a9.83,9.83,0,0,0-6,1.56,25.15,25.15,0,0,0-4,3.83V10.33a.66.66,0,0,0,0-.14,2,2,0,0,0-.06-.34v0a1.86,1.86,0,0,1-.1-.31s0,0,0-.06a2.63,2.63,0,0,0-2.19-1.6H180.6V67.75a10.55,10.55,0,0,0,10.56,10.54V55.51h.2a12.76,12.76,0,0,0,4.19,4,10.93,10.93,0,0,0,5.53,1.4A11.16,11.16,0,0,0,207,59.55a11.4,11.4,0,0,0,3.46-3.42,10.43,10.43,0,0,0,1.35-4.34,80.16,80.16,0,0,0,.31-8.38v-20A45.32,45.32,0,0,0,211.73,16.52ZM201.6,44.14a8.6,8.6,0,0,1-1.08,4.34c-.74,1.24-2.09,1.86-4.09,1.86a4.93,4.93,0,0,1-3.77-1.6,5.7,5.7,0,0,1-1.5-4.09V24.28a7.35,7.35,0,0,1,1.44-4.71,4.68,4.68,0,0,1,3.83-1.81,4.3,4.3,0,0,1,3.93,2,9.65,9.65,0,0,1,1.24,5.17Z"/><path class="cls-1" d="M247.58,38V23.55a18.6,18.6,0,0,0-1.09-6.41,15.61,15.61,0,0,0-3.09-5.22,14,14,0,0,0-5-3.46,16.71,16.71,0,0,0-6.56-1.25,16.1,16.1,0,0,0-8.38,2.08,13.85,13.85,0,0,0-6.93,10.23,39.75,39.75,0,0,0-.41,5.89V42.69a39.56,39.56,0,0,0,.41,5.89,13.89,13.89,0,0,0,6.93,10.24,16.2,16.2,0,0,0,8.38,2.07,16.5,16.5,0,0,0,6.51-1.24,14.86,14.86,0,0,0,5-3.42,13.58,13.58,0,0,0,3.15-5,17.39,17.39,0,0,0,1.09-6.2H239a2.63,2.63,0,0,0-2.35,1.75.94.94,0,0,1,0,.09,10.29,10.29,0,0,1-.76,1.67c-.65,1.18-2,1.76-4,1.76A5.21,5.21,0,0,1,228.09,49a5.05,5.05,0,0,1-1.4-3.82V38ZM226.69,23.77a6.43,6.43,0,0,1,1.4-4.51,5.5,5.5,0,0,1,7.55,0A6.38,6.38,0,0,1,237,23.77v6H226.69Z"/><path class="cls-1" d="M281.24,36.49q-2.22-3.94-8.11-6.21l-6.21-2.48q-3-1.14-3.72-2.54a6.15,6.15,0,0,1-.73-2.84,5.56,5.56,0,0,1,1.36-3.67,4.69,4.69,0,0,1,3.82-1.61,5.65,5.65,0,0,1,3.67,1.34,5.27,5.27,0,0,1,1.7,4h7.05a2.64,2.64,0,0,0,2.64-2.63c0-.1,0-.18,0-.27a2,2,0,0,0-.06-.35,15.26,15.26,0,0,0-.83-2.8,14.72,14.72,0,0,0-3.1-4.86A14.85,14.85,0,0,0,274,8.4a15,15,0,0,0-5.95-1.19,15.65,15.65,0,0,0-10.91,4.3,14.8,14.8,0,0,0-3.37,4.86,15.28,15.28,0,0,0-1.23,6.15,14.1,14.1,0,0,0,2.84,8.94A17.18,17.18,0,0,0,263.2,37l5.07,1.87a9,9,0,0,1,4.13,2.69,6.1,6.1,0,0,1,1.14,3.73,5.14,5.14,0,0,1-1.8,4.18,6.28,6.28,0,0,1-4.09,1.5c-2,0-3.4-.62-4.19-1.87a10.51,10.51,0,0,1-1-2,.11.11,0,0,0,0,0c0-.1-.07-.2-.1-.3a.14.14,0,0,1,0-.07,2.64,2.64,0,0,0-2.2-1.59H252a17.5,17.5,0,0,0,1.45,6.87A15,15,0,0,0,257,56.85a14.57,14.57,0,0,0,4.9,3,17.11,17.11,0,0,0,5.9,1,16,16,0,0,0,6.31-1.24,15,15,0,0,0,5-3.42,15.91,15.91,0,0,0,3.25-5,15.64,15.64,0,0,0,1.19-6.15A17.15,17.15,0,0,0,281.24,36.49Z"/><path class="cls-1" d="M166.6,19.22a13.33,13.33,0,0,1-1.71.1h-.06v41h10.56V14.72A14.4,14.4,0,0,1,166.6,19.22Z"/><path class="cls-1" d="M31.44,38V23.55a18.84,18.84,0,0,0-1.09-6.41,15.63,15.63,0,0,0-3.1-5.22,14,14,0,0,0-5-3.46,16.76,16.76,0,0,0-6.57-1.25A16.16,16.16,0,0,0,7.34,9.29,13.87,13.87,0,0,0,.42,19.52,38.39,38.39,0,0,0,0,25.41V42.69a38.2,38.2,0,0,0,.42,5.89A14,14,0,0,0,2,53.34a14.13,14.13,0,0,0,5.37,5.48,16.25,16.25,0,0,0,8.38,2.07,16.55,16.55,0,0,0,6.52-1.24,14.82,14.82,0,0,0,5-3.42,13.47,13.47,0,0,0,3.16-5,17.61,17.61,0,0,0,1.09-6.2H22.85a2.62,2.62,0,0,0-2.36,1.75l0,.09a10.29,10.29,0,0,1-.76,1.67c-.65,1.18-2,1.76-4,1.76A5.18,5.18,0,0,1,12,49a5.05,5.05,0,0,1-1.4-3.82V38ZM10.55,23.77A6.43,6.43,0,0,1,12,19.26a4.89,4.89,0,0,1,3.77-1.5,4.87,4.87,0,0,1,3.77,1.5,6.43,6.43,0,0,1,1.4,4.51v6H10.55Z"/><path class="cls-1" d="M58.59,45.07a2.64,2.64,0,0,0-2.36,1.75s0,.07,0,.09a11.22,11.22,0,0,1-.76,1.67c-.66,1.18-2,1.76-4,1.76A5.16,5.16,0,0,1,47.7,49a5.05,5.05,0,0,1-1.4-3.82V23.77a6.43,6.43,0,0,1,1.4-4.51,5.49,5.49,0,0,1,7.54,0A6.7,6.7,0,0,1,56.64,24h7.73A2.64,2.64,0,0,0,67,21.34a1.41,1.41,0,0,0,0-.2c0-.13,0-.26-.06-.39a18.54,18.54,0,0,0-.85-3.51A15.57,15.57,0,0,0,63,11.92a14,14,0,0,0-5-3.46,16.76,16.76,0,0,0-6.57-1.25A16.09,16.09,0,0,0,43.1,9.29a13.85,13.85,0,0,0-6.93,10.23,38.44,38.44,0,0,0-.41,5.89V42.69a38.26,38.26,0,0,0,.41,5.89A13.89,13.89,0,0,0,43.1,58.82a16.19,16.19,0,0,0,8.37,2.07A16.5,16.5,0,0,0,58,59.65a14.9,14.9,0,0,0,5-3.42,13.85,13.85,0,0,0,3.15-5,17.61,17.61,0,0,0,1.09-6.2Z"/><path class="cls-1" d="M71,25.41a39.75,39.75,0,0,1,.41-5.89A14.42,14.42,0,0,1,73,14.76a14.06,14.06,0,0,1,5.38-5.47,17.9,17.9,0,0,1,16.75,0,14.1,14.1,0,0,1,5.37,5.47,14.41,14.41,0,0,1,1.55,4.76,38.39,38.39,0,0,1,.42,5.89V42.69a38.29,38.29,0,0,1-.42,5.89,14.41,14.41,0,0,1-1.55,4.76,14.13,14.13,0,0,1-5.37,5.48,16.25,16.25,0,0,1-8.38,2.07,16.19,16.19,0,0,1-8.37-2.07A14.08,14.08,0,0,1,73,53.34a14.42,14.42,0,0,1-1.56-4.76A39.65,39.65,0,0,1,71,42.69ZM81.58,44.34A6.45,6.45,0,0,0,83,48.84a5.5,5.5,0,0,0,7.55,0,6.4,6.4,0,0,0,1.4-4.5V23.76a6.42,6.42,0,0,0-1.4-4.5,5.5,5.5,0,0,0-7.55,0,6.46,6.46,0,0,0-1.39,4.5Z"/><path class="cls-1" d="M175.38,0a10.5,10.5,0,0,0-10.49,9.46c0,.35-.06.71-.06,1.08v5.14h.06a10.06,10.06,0,0,0,1.24-.08,10.55,10.55,0,0,0,9.26-9.39,9.65,9.65,0,0,0,.05-1.08V0Z"/><path class="cls-1" d="M8.71,78.09H7L5.91,72.31h0L4.8,78.09H3.07L.77,68.35H2.84L4,74.4h0l1.09-6.05H6.7l1,6.05h0l1.17-6.05H11Z"/><path class="cls-1" d="M18.51,74v1.32a.87.87,0,0,0,.95,1c.75,0,.92-.56,1-1h2a3,3,0,0,1-.79,2.08,2.86,2.86,0,0,1-2.13.86,2.79,2.79,0,0,1-2.55-1.4,4.41,4.41,0,0,1-.36-2v-3.2a4.41,4.41,0,0,1,.36-2,2.77,2.77,0,0,1,2.55-1.4,2.84,2.84,0,0,1,2.92,3V74Zm0-1.54h1.91V71.31c0-.73-.36-1.11-1-1.11s-.95.38-.95,1.11Z"/><path class="cls-1" d="M31.5,76.13h2v2h-2Z"/><path class="cls-1" d="M49.91,78.09H48.18L47.1,72.31h0L46,78.09H44.26L42,68.35H44l1.19,6.05h0l1.09-6.05h1.54l1,6.05h0l1.17-6.05h2.08Z"/><path class="cls-1" d="M58.5,71.62a4.27,4.27,0,0,1,.37-2,3,3,0,0,1,5.1,0,4.27,4.27,0,0,1,.37,2v3.2a4.27,4.27,0,0,1-.37,2,3,3,0,0,1-5.1,0,4.27,4.27,0,0,1-.37-2Zm2,3.51c0,.73.36,1.11,1,1.11s1-.38,1-1.11V71.31c0-.73-.36-1.11-1-1.11s-1,.38-1,1.11Z"/><path class="cls-1" d="M71.54,68.35h1.95v1a3.59,3.59,0,0,1,2.6-1.15v2.07a1.56,1.56,0,0,0-.6-.11,2,2,0,0,0-2,2.11v5.78H71.54Z"/><path class="cls-1" d="M82.51,65.13h2V75.34c0,.73.21.94,1,1V78.2c-1.8,0-2.92-.46-2.92-2.73Z"/><path class="cls-1" d="M95.85,77.2a2.19,2.19,0,0,1-1.86,1,1.79,1.79,0,0,1-1.71-.92A4.43,4.43,0,0,1,92,75.19V71.48a4.66,4.66,0,0,1,.3-2.36A1.85,1.85,0,0,1,94,68.24a2.07,2.07,0,0,1,1.8,1h0V65.13h2v13h-2Zm-1.94-2.28c0,.79.29,1.32,1,1.32s1-.5,1-1.21V71.25a1,1,0,0,0-1-1c-.76,0-1,.53-1,1.15Z"/><path class="cls-1" d="M107.1,76.13h2v2h-2Z"/><path class="cls-1" d="M125.51,78.09h-1.73l-1.08-5.78h0l-1.07,5.78h-1.72l-2.31-9.74h2.07l1.19,6.05h0l1.1-6.05h1.53l1,6.05h0l1.17-6.05h2.07Z"/><path class="cls-1" d="M134.39,65.13h2v2h-2Zm0,3.22h2v9.74h-2Z"/><path class="cls-1" d="M143.73,68.35h2v.89a2.2,2.2,0,0,1,1.87-1,1.77,1.77,0,0,1,1.7.92,4.4,4.4,0,0,1,.33,2.09V75a4.6,4.6,0,0,1-.31,2.35,1.82,1.82,0,0,1-1.75.89,2.09,2.09,0,0,1-1.81-1h0V82h-2Zm3.89,3.17c0-.79-.29-1.32-1-1.32s-1,.49-1,1.2v3.79a1,1,0,0,0,1,1c.75,0,1-.53,1-1.15Z"/><path class="cls-1" d="M158.74,74v1.32a.87.87,0,0,0,.95,1,.92.92,0,0,0,1-1h1.95a3,3,0,0,1-.77,2.08,2.93,2.93,0,0,1-2.14.86,2.78,2.78,0,0,1-2.55-1.4,4.27,4.27,0,0,1-.37-2v-3.2a4.27,4.27,0,0,1,.37-2,2.76,2.76,0,0,1,2.55-1.4,2.84,2.84,0,0,1,2.91,3V74Zm0-1.54h1.91V71.31c0-.73-.36-1.11-1-1.11s-.95.38-.95,1.11Z"/><path class="cls-1" d="M173.35,71.08a1,1,0,0,0-1-1,.94.94,0,0,0-1,1c0,.36.09.71.83,1l1.14.46a2.71,2.71,0,0,1,1.93,2.74,2.9,2.9,0,0,1-2.92,2.94,2.84,2.84,0,0,1-2.92-2.94h1.84c.08.54.33,1.09,1.06,1.09a1.05,1.05,0,0,0,1.09-1c0-.54-.23-.9-1-1.19l-.93-.35a2.76,2.76,0,0,1-2-2.68,2.82,2.82,0,0,1,2.88-2.84,2.75,2.75,0,0,1,2.77,2.84Z"/></g></g></svg>